<svg width="41" height="41" viewBox="0 0 41 41" fill="none" xmlns="http://www.w3.org/2000/svg">
<path d="M20.5 0.223145C9.472 0.223145 0.5 9.19514 0.5 20.2231V28.5091C0.5 30.5571 2.294 32.2231 4.5 32.2231H6.5C7.03043 32.2231 7.53914 32.0124 7.91421 31.6374C8.28929 31.2623 8.5 30.7536 8.5 30.2231V19.9371C8.5 19.4067 8.28929 18.898 7.91421 18.5229C7.53914 18.1479 7.03043 17.9371 6.5 17.9371H4.684C5.796 10.1971 12.456 4.22314 20.5 4.22314C28.544 4.22314 35.204 10.1971 36.316 17.9371H34.5C33.9696 17.9371 33.4609 18.1479 33.0858 18.5229C32.7107 18.898 32.5 19.4067 32.5 19.9371V32.2231C32.5 34.4291 30.706 36.2231 28.5 36.2231H24.5V34.2231H16.5V40.2231H28.5C32.912 40.2231 36.5 36.6351 36.5 32.2231C38.706 32.2231 40.5 30.5571 40.5 28.5091V20.2231C40.5 9.19514 31.528 0.223145 20.5 0.223145Z" fill="white"/>
</svg>
