<svg width="41" height="41" viewBox="0 0 41 41" fill="none" xmlns="http://www.w3.org/2000/svg">
<path d="M0.500061 6.22339C0.495074 5.11911 0.794936 4.03488 1.36662 3.0901C1.93831 2.14531 2.75965 1.37662 3.74018 0.868684C4.72071 0.360746 5.82241 0.133263 6.92393 0.211287C8.02546 0.289311 9.08409 0.669814 9.98323 1.3109C10.8824 1.95198 11.5872 2.82876 12.02 3.8447C12.4528 4.86064 12.5968 5.97631 12.4362 7.06886C12.2756 8.1614 11.8166 9.18844 11.1098 10.0369C10.4029 10.8853 9.47565 11.5222 8.43006 11.8774C8.46449 11.9902 8.48793 12.1061 8.50006 12.2234V22.2234C8.50006 22.7538 8.28935 23.2625 7.91427 23.6376C7.5392 24.0127 7.03049 24.2234 6.50006 24.2234C5.96963 24.2234 5.46092 24.0127 5.08585 23.6376C4.71077 23.2625 4.50006 22.7538 4.50006 22.2234V12.2234C4.51219 12.1061 4.53563 11.9902 4.57006 11.8774C3.38584 11.4786 2.35637 10.7187 1.62634 9.70453C0.896311 8.69038 0.502431 7.47296 0.500061 6.22339ZM36.4301 28.5694C36.4645 28.4566 36.4879 28.3407 36.5001 28.2234V20.2234C36.5001 19.693 36.2893 19.1842 35.9143 18.8092C35.5392 18.4341 35.0305 18.2234 34.5001 18.2234C33.9696 18.2234 33.4609 18.4341 33.0858 18.8092C32.7108 19.1842 32.5001 19.693 32.5001 20.2234V28.2234C32.5122 28.3407 32.5356 28.4566 32.5701 28.5694C31.2239 29.0267 30.0838 29.9472 29.3531 31.1668C28.6224 32.3864 28.3486 33.8259 28.5803 35.2286C28.8121 36.6313 29.5344 37.9062 30.6186 38.8259C31.7028 39.7456 33.0783 40.2505 34.5001 40.2505C35.9218 40.2505 37.2974 39.7456 38.3815 38.8259C39.4657 37.9062 40.188 36.6313 40.4198 35.2286C40.6516 33.8259 40.3777 32.3864 39.647 31.1668C38.9163 29.9472 37.7762 29.0267 36.4301 28.5694ZM38.5001 0.223388H30.5001C29.9696 0.223388 29.4609 0.434102 29.0858 0.809175C28.7108 1.18425 28.5001 1.69296 28.5001 2.22339V4.22339H20.5001C19.9696 4.22339 19.4609 4.4341 19.0858 4.80918C18.7108 5.18425 18.5001 5.69296 18.5001 6.22339C18.5001 6.75382 18.7108 7.26253 19.0858 7.6376C19.4609 8.01267 19.9696 8.22339 20.5001 8.22339H28.5001V10.2234C28.5001 10.7538 28.7108 11.2625 29.0858 11.6376C29.4609 12.0127 29.9696 12.2234 30.5001 12.2234H38.5001C39.0305 12.2234 39.5392 12.0127 39.9143 11.6376C40.2893 11.2625 40.5001 10.7538 40.5001 10.2234V2.22339C40.5001 1.69296 40.2893 1.18425 39.9143 0.809175C39.5392 0.434102 39.0305 0.223388 38.5001 0.223388ZM20.5001 32.2234H12.5001V30.2234C12.5001 29.693 12.2893 29.1842 11.9143 28.8092C11.5392 28.4341 11.0305 28.2234 10.5001 28.2234H2.50006C1.96963 28.2234 1.46092 28.4341 1.08585 28.8092C0.710775 29.1842 0.500061 29.693 0.500061 30.2234V38.2234C0.500061 38.7538 0.710775 39.2625 1.08585 39.6376C1.46092 40.0127 1.96963 40.2234 2.50006 40.2234H10.5001C11.0305 40.2234 11.5392 40.0127 11.9143 39.6376C12.2893 39.2625 12.5001 38.7538 12.5001 38.2234V36.2234H20.5001C21.0305 36.2234 21.5392 36.0127 21.9143 35.6376C22.2893 35.2625 22.5001 34.7538 22.5001 34.2234C22.5001 33.693 22.2893 33.1842 21.9143 32.8092C21.5392 32.4341 21.0305 32.2234 20.5001 32.2234Z" fill="white"/>
</svg>
