<svg width="161" height="35" viewBox="0 0 161 35" fill="none" xmlns="http://www.w3.org/2000/svg">
<g clip-path="url(#clip0_17_53)">
<path d="M58.2983 8.30414C53.6667 8.30414 50.3272 11.8985 50.3272 18.365C50.3272 24.8819 53.6163 28.4763 58.4158 28.4763C62.7118 28.4763 65.4471 25.8897 65.5311 21.7914H58.9192V17.7268H70.5487V21.17C70.5487 28.577 65.4639 33.1624 58.3822 33.1624C50.4782 33.1624 45.1082 27.5189 45.1082 18.4154C45.1082 9.16074 50.7299 3.63483 58.2312 3.63483C64.5577 3.63483 69.4243 7.56511 70.3137 13.2086H65.0276C64.1046 10.1517 61.7553 8.30414 58.2983 8.30414ZM74.0392 11.2267H79.0904V32.7593H74.0392V11.2267ZM76.5732 7.80026C74.9622 7.80026 73.6532 6.59094 73.6532 5.06249C73.6532 3.53405 74.9789 2.29114 76.5899 2.29114C78.201 2.29114 79.5099 3.55085 79.5099 5.06249C79.5099 6.57414 78.201 7.80026 76.5899 7.80026H76.5732ZM94.2607 15.1402H90.015V26.2928C90.015 28.3419 91.0387 28.7954 92.314 28.7954C92.4371 28.7954 92.5602 28.7898 92.6832 28.7786C92.8063 28.7674 92.9294 28.7506 93.0524 28.7282C93.1755 28.7058 93.2985 28.689 93.4216 28.6778C93.5447 28.6554 93.6677 28.6274 93.7908 28.5938L94.6466 32.5577C94.4005 32.6473 94.1544 32.7201 93.9083 32.7761C93.6621 32.8321 93.416 32.8824 93.1699 32.9272C92.9238 32.972 92.672 33.0056 92.4147 33.028C92.1686 33.0504 91.9169 33.0672 91.6596 33.0784C87.867 33.196 84.9303 31.1972 84.947 27.1326V15.157H81.9096V11.2267H84.947V6.03667H90.015V11.2267H94.2607V15.1402ZM98.1707 4.02114H103.356V28.3923H115.959V32.7593H98.1707V4.02114ZM118.493 26.7127C118.493 21.8586 122.47 20.6157 126.632 20.1622C130.424 19.7591 131.952 19.6919 131.952 18.2306V18.1467C131.952 16.0304 130.659 14.821 128.31 14.821C125.826 14.821 124.4 16.0807 123.913 17.5588L119.181 16.8702C120.305 12.9399 123.762 10.9243 128.276 10.9243C132.371 10.9243 137.003 12.6375 137.003 18.3314V32.7593H132.136V29.8032H131.968C131.045 31.6171 129.032 33.196 125.659 33.196C121.564 33.196 118.476 30.9621 118.493 26.7127ZM127.32 29.4672C130.374 29.4672 132.304 27.4349 132.287 25.0331V22.4968C131.633 23.0343 128.981 23.3702 127.639 23.555C125.39 23.8741 123.695 24.6803 123.695 26.6455C123.695 28.5099 125.205 29.4672 127.32 29.4672ZM140.728 4.02114H145.779V14.7706H145.997C146.769 13.2086 148.347 10.9243 152.139 10.9243C157.107 10.9243 161 14.8378 161 22.0098C161 29.1145 157.207 33.1456 152.156 33.1456C148.464 33.1456 146.803 30.9453 145.997 29.3665H145.712V32.7593H140.728V4.02114ZM150.747 28.9801C154.086 28.9801 155.848 26.0072 155.848 21.993C155.848 17.9787 154.103 15.0898 150.747 15.0898C147.491 15.0898 145.695 17.7939 145.695 21.993C145.695 26.1752 147.508 28.9801 150.747 28.9801Z" fill="#D8D8D8"/>
<path d="M36.1638 16.7526C36.2141 17.7436 36.0966 18.7177 35.8114 19.6751C35.5429 20.6157 35.1233 21.5227 34.5695 22.3289C34.0158 23.1519 33.3277 23.8741 32.539 24.462L32.5222 24.4788L24.9874 30.1391L21.2619 32.9608L19.0133 34.674C18.879 34.7748 18.7336 34.8476 18.5769 34.8924C18.4203 34.9484 18.2581 34.9764 18.0903 34.9764C17.9225 34.9764 17.7602 34.9484 17.6036 34.8924C17.447 34.8476 17.3072 34.7748 17.1841 34.674L14.9186 32.9608L11.2099 30.1391L3.72547 24.5124L3.69191 24.4788L3.65834 24.462C2.8864 23.8741 2.19837 23.1519 1.64459 22.3289C1.07402 21.5227 0.654487 20.6157 0.385986 19.6751C0.117485 18.7177 1.57505e-05 17.7436 0.0335784 16.7526C0.0839224 15.7616 0.285298 14.7875 0.637706 13.8637L0.68805 13.7461L5.60498 0.863483C5.62735 0.796299 5.65532 0.734713 5.68888 0.678726C5.72245 0.622739 5.7616 0.566752 5.80635 0.510765C5.8511 0.454778 5.89585 0.40439 5.9406 0.3596C5.99654 0.31481 6.05248 0.27562 6.10842 0.242027C6.27623 0.141251 6.47761 0.0740663 6.67898 0.0404741C6.88036 0.023678 7.08173 0.0572702 7.26633 0.124455C7.4677 0.191639 7.63552 0.309212 7.76977 0.460377C7.90402 0.611542 8.00471 0.796299 8.05505 0.997852L11.3778 11.1931H24.8196L28.1423 0.997852C28.2094 0.796299 28.2933 0.611542 28.4444 0.460377C28.5786 0.309212 28.7464 0.191639 28.931 0.124455C29.1324 0.0572702 29.3338 0.023678 29.5351 0.0404741C29.7365 0.0740663 29.9211 0.141251 30.1057 0.242027C30.1616 0.27562 30.212 0.31481 30.2567 0.3596C30.3127 0.40439 30.363 0.454778 30.4078 0.510765L30.5085 0.678726C30.542 0.734713 30.5756 0.796299 30.6091 0.863483L35.5261 13.7293L35.5764 13.8637C35.9288 14.7875 36.1302 15.7616 36.1638 16.7526Z" fill="#D8D8D8"/>
<path d="M36.1638 16.7525C36.2141 17.7435 36.0966 18.7177 35.8281 19.6751C35.5429 20.6157 35.1233 21.5226 34.5695 22.3289C34.0158 23.1519 33.3277 23.8741 32.539 24.462L32.5222 24.4788L24.9874 30.139L18.1071 24.9155L28.9142 16.719C29.3953 16.3494 29.8987 16.0135 30.4245 15.7112C30.9504 15.3977 31.493 15.1177 32.0523 14.8714C32.6117 14.6138 33.1823 14.3899 33.764 14.1995C34.3346 14.0092 34.9219 13.8524 35.5261 13.7292L35.5764 13.8636C35.9288 14.7874 36.1302 15.7616 36.1638 16.7525Z" fill="#D8D8D8"/>
<path d="M18.1071 24.9155L24.9874 30.1391L21.2619 32.9608L19.0132 34.674C18.879 34.7748 18.7336 34.8476 18.5769 34.8924C18.4203 34.9483 18.2581 34.9763 18.0903 34.9763C17.9225 34.9763 17.7602 34.9483 17.6036 34.8924C17.447 34.8476 17.3071 34.7748 17.1841 34.674L14.9186 32.9608L11.2099 30.1391L18.1071 24.9155Z" fill="#D8D8D8"/>
<path d="M18.0903 24.9155L11.2099 30.1391L3.72544 24.5124L3.69188 24.4788L3.65831 24.462C2.88637 23.8741 2.19834 23.1519 1.64455 22.3289C1.07399 21.5227 0.654457 20.6157 0.385956 19.6751C0.117454 18.7177 -1.47671e-05 17.7436 0.0335479 16.7526C0.0838918 15.7616 0.285268 14.7875 0.637675 13.8637L0.688019 13.7461C1.28096 13.8693 1.86831 14.0204 2.45006 14.1996C3.03181 14.3899 3.60238 14.6139 4.16175 14.8714C4.70994 15.1178 5.24694 15.3977 5.77276 15.7112C6.29857 16.0248 6.80761 16.3607 7.29986 16.719L18.0903 24.9155Z" fill="#D8D8D8"/>
</g>
<defs>
<clipPath id="clip0_17_53">
<rect width="161" height="35" fill="white"/>
</clipPath>
</defs>
</svg>
