<svg width="188" height="35" viewBox="0 0 188 35" fill="none" xmlns="http://www.w3.org/2000/svg">
<g clip-path="url(#clip0_17_59)">
<path d="M3.89767 27.1361C2.48754 27.1391 1.18484 26.3807 0.487823 25.1507C-0.199148 23.9284 -0.157954 22.4254 0.594938 21.2428L7.61696 10.1788C8.34865 8.96822 9.67292 8.24627 11.0833 8.28903C12.4927 8.32292 13.7747 9.11579 14.4381 10.3639C15.0927 11.6058 15.0109 13.1 14.2269 14.2659L7.20932 25.3299C6.48606 26.4607 5.23681 27.142 3.89767 27.1361Z" fill="#D8D8D8"/>
<path d="M15.9422 27.1361C14.5259 27.1361 13.2227 26.3762 12.5383 25.1552C11.8529 23.9362 11.8941 22.437 12.6454 21.2577L19.6541 10.2191C20.3752 8.99115 21.7034 8.25225 23.1234 8.28903C24.5516 8.32038 25.8459 9.12197 26.5005 10.3758C27.1507 11.6297 27.0554 13.1329 26.2476 14.2957L19.2405 25.3343C18.5195 26.4603 17.276 27.1395 15.9422 27.1361Z" fill="#D8D8D8"/>
<path d="M27.7175 27.2286C29.7141 27.2286 31.3326 25.6387 31.3326 23.6774C31.3326 21.7162 29.7141 20.1263 27.7175 20.1263C25.7209 20.1263 24.1023 21.7162 24.1023 23.6774C24.1023 25.6387 25.7209 27.2286 27.7175 27.2286Z" fill="#D8D8D8"/>
<path d="M184.77 20.3322C185.862 20.3322 186.515 21.1114 186.515 22.3877V26.7614H187.998V22.2877C187.998 20.1173 186.979 18.8589 185.063 18.8589C184.313 18.8589 183.123 19.0649 182.413 20.4487C182.077 19.6171 181.313 19.038 180.424 18.941C180.149 18.8906 179.87 18.874 179.591 18.8918C178.981 18.941 177.895 19.3217 177.489 20.1845V19.0246H176.004V26.7614H177.489V22.5862C177.489 20.9622 178.548 20.3322 179.609 20.3322C180.603 20.3322 181.256 21.095 181.256 22.3713V26.7614H182.732V22.5862C182.732 21.2936 183.505 20.3173 184.77 20.3322ZM170.555 25.4687C171.233 25.4836 171.888 25.2119 172.362 24.7193C172.838 24.2267 173.091 23.5565 173.066 22.8684C173.066 21.31 171.923 20.3322 170.555 20.3322C169.184 20.3322 168.043 21.31 168.043 22.8684C168.017 23.555 168.269 24.2237 168.743 24.7149C169.216 25.2074 169.867 25.4806 170.543 25.4687H170.555ZM170.555 26.9196C168.385 26.9196 166.575 25.3119 166.575 22.8594C166.575 20.4069 168.385 18.85 170.555 18.85C172.724 18.85 174.549 20.4069 174.549 22.8594C174.549 25.3119 172.713 26.9271 170.544 26.9271L170.555 26.9196ZM158.936 22.8594L158.921 22.8684C158.921 20.4158 160.779 18.8589 162.963 18.85C164.072 18.8284 165.139 19.2797 165.898 20.0919L164.773 21.0532C164.291 20.5778 163.639 20.3156 162.963 20.3248C161.594 20.3248 160.404 21.3025 160.404 22.8594C160.404 23.9118 161.027 24.8596 161.984 25.2627C162.94 25.6657 164.041 25.4418 164.773 24.6984L165.914 25.6597C165.153 26.4803 164.08 26.9382 162.963 26.9196C160.795 26.9196 158.936 25.3119 158.936 22.8594ZM154.185 25.2761C154.182 25.0029 154.287 24.7397 154.477 24.5443C154.668 24.3489 154.928 24.2373 155.2 24.2342C155.472 24.2373 155.732 24.3489 155.922 24.5443C156.113 24.7397 156.218 25.0029 156.214 25.2761C156.187 25.8199 155.742 26.2482 155.2 26.2538C154.657 26.2482 154.213 25.8199 154.185 25.2761Z" fill="#D8D8D8"/>
<path d="M158.244 9.18915H152.961L149.258 18.7679L145.574 9.18915H140.291L146.714 24.3253L142.719 34.3324H147.964L158.244 9.18915ZM126.115 17.6081C126.115 20.0262 128.222 21.6175 130.291 21.6175C132.325 21.6175 134.323 20.1367 134.323 17.6066C134.323 15.0764 132.325 13.5941 130.291 13.5941C128.222 13.5941 126.115 15.1869 126.115 17.6066V17.6081ZM134.323 26.0598V24.1446C133.252 25.7717 130.752 26.3867 129.47 26.3867C125.224 26.3867 120.976 23.0281 120.976 17.6066C120.976 12.1865 125.222 8.82791 129.47 8.82791C130.539 8.82791 133.039 9.18616 134.323 11.067V9.19512H139.247V26.0628L134.323 26.0613V26.0598ZM119.575 26.0598H114.651V23.964C113.828 25.5165 111.833 26.421 109.762 26.421C105.479 26.421 101.696 22.9893 101.696 17.6752C101.696 12.2612 105.479 8.82492 109.762 8.82492C111.83 8.82492 113.831 9.6907 114.651 11.2446V0H119.575V26.0598ZM114.544 17.5692C114.544 15.0406 112.724 13.5583 110.69 13.5583C108.584 13.5583 106.834 15.1481 106.834 17.5692C106.834 20.068 108.584 21.6503 110.689 21.6503C112.761 21.6533 114.544 19.9904 114.544 17.5692ZM89.5202 17.1334C89.5202 14.5689 90.8413 13.7016 92.5893 13.7016C94.266 13.7016 95.48 14.8212 95.48 17.0602V26.0568H100.44V15.978C100.44 11.1745 98.0835 8.82492 94.3359 8.82492C92.3736 8.82492 90.4113 9.94446 89.5187 11.6432V9.18915H84.5616V26.0568H89.5202V17.1334ZM74.4898 26.3464C69.7797 26.3464 65.8506 22.8788 65.8506 17.5677C65.8506 12.2537 69.7752 8.82045 74.4898 8.82045C79.2044 8.82045 83.1632 12.2537 83.1632 17.5677C83.1632 22.8818 79.1999 26.3479 74.4898 26.3479V26.3464ZM74.4898 21.4354C76.5577 21.4354 78.273 19.9158 78.273 17.5692C78.273 15.2929 76.5592 13.7389 74.4898 13.7389C73.4828 13.7231 72.5135 14.123 71.8089 14.845C71.1004 15.5707 70.7155 16.5537 70.7422 17.5692C70.7437 19.9188 72.4561 21.4354 74.4898 21.4354ZM56.9585 13.7031C58.421 13.7031 59.7064 14.86 59.7064 17.0617V26.0598H64.6307V16.4796C64.6307 11.3864 62.1626 8.82194 58.2067 8.82194C57.0314 8.82194 54.8177 9.18019 53.211 11.8193C52.2826 9.86833 50.4989 8.85627 47.8626 8.85627C45.9933 8.84673 44.2911 9.93478 43.5096 11.6387V9.19064H38.5466V26.0583H43.5051V17.1334C43.5051 14.5689 44.8976 13.7016 46.3958 13.7016C47.824 13.7016 49.1064 14.8212 49.1436 16.9528V26.0583H54.1036V17.1334C54.1036 14.6808 55.389 13.7046 56.9585 13.7046V13.7031Z" fill="#D8D8D8"/>
</g>
<defs>
<clipPath id="clip0_17_59">
<rect width="188" height="35" fill="white"/>
</clipPath>
</defs>
</svg>
