<svg width="48" height="45" viewBox="0 0 48 45" fill="none" xmlns="http://www.w3.org/2000/svg">
<path d="M32.3362 38.4492C32.0874 38.2978 31.8707 38.0949 31.6985 37.8491C31.6189 37.7357 31.5517 37.6158 31.496 37.4919H3.23276V9.63404H41.5961V27.8242C42.4151 27.8982 43.1023 28.4361 43.3908 29.1727C43.6463 29.0327 43.931 28.9461 44.2302 28.9197C44.4327 28.9021 44.6337 28.9147 44.8287 28.9532V2.69404C44.8287 1.20854 43.6204 0 42.135 0H2.69393C1.20854 0 0 1.20854 0 2.69404V38.0308C0 39.5163 1.20854 40.7247 2.69393 40.7247H32.0906C31.8612 40.2602 31.8068 39.7358 31.9418 39.2312C32.0197 38.941 32.1543 38.6763 32.3362 38.4492ZM38.6378 4.52383C38.6378 3.97448 39.0831 3.52904 39.6325 3.52904H40.6271C41.1766 3.52904 41.6218 3.97437 41.6218 4.52383V5.65121C41.6218 6.20056 41.1765 6.64589 40.6271 6.64589H39.6325C39.083 6.64589 38.6378 6.20056 38.6378 5.65121V4.52383ZM34.0124 4.52383C34.0124 3.97448 34.4578 3.52904 35.0071 3.52904H36.0019C36.5514 3.52904 36.9966 3.97437 36.9966 4.52383V5.65121C36.9966 6.20056 36.5513 6.64589 36.0019 6.64589H35.0071C34.4578 6.64589 34.0124 6.20056 34.0124 5.65121V4.52383ZM29.387 4.52383C29.387 3.97448 29.8324 3.52904 30.3817 3.52904H31.3764C31.9258 3.52904 32.3711 3.97437 32.3711 4.52383V5.65121C32.3711 6.20056 31.9258 6.64589 31.3764 6.64589H30.3817C29.8324 6.64589 29.387 6.20056 29.387 5.65121V4.52383Z" fill="white"/>
<path d="M47.9936 36.5521L47.6947 34.857C47.6544 34.6287 47.4369 34.4763 47.2084 34.5165L45.7009 34.7821C45.52 34.3575 45.2888 33.9597 45.0145 33.5956L45.9991 32.422C46.0707 32.3369 46.1056 32.2266 46.096 32.1156C46.0861 32.0046 46.0326 31.9022 45.9474 31.8306L44.629 30.7241C44.5437 30.6525 44.4332 30.6178 44.3223 30.6275C44.2113 30.6372 44.1089 30.6906 44.0373 30.7759L43.0536 31.9486C42.6498 31.7429 42.2178 31.5842 41.7653 31.4795V29.9488C41.7653 29.717 41.5773 29.5288 41.3455 29.5288H39.624C39.3923 29.5288 39.2042 29.717 39.2042 29.9488V31.4795C38.7514 31.5841 38.3199 31.7429 37.9159 31.9486L36.9319 30.776C36.7829 30.5984 36.5181 30.5753 36.3404 30.7242L35.0219 31.8306C34.9366 31.9022 34.8833 32.0046 34.8734 32.1156C34.8638 32.2266 34.8986 32.337 34.9701 32.4223L35.9549 33.5958C35.681 33.9597 35.4494 34.3577 35.2685 34.7822L33.761 34.5165C33.5331 34.4764 33.3151 34.6287 33.2746 34.857L32.9759 36.5521C32.9565 36.6618 32.9816 36.7745 33.0452 36.8658C33.1094 36.9571 33.2064 37.0192 33.3161 37.0385L34.8247 37.3044C34.8493 37.7718 34.9307 38.224 35.0617 38.6545L33.7358 39.4198C33.6393 39.4752 33.569 39.5671 33.5401 39.6746C33.5113 39.7822 33.5265 39.8967 33.582 39.9932L34.4426 41.4838C34.498 41.5803 34.5899 41.6506 34.6974 41.6794C34.7332 41.689 34.7696 41.6937 34.8061 41.6937C34.8791 41.6937 34.9515 41.6747 35.016 41.6374L36.3429 40.8712C36.655 41.2056 37.0073 41.5019 37.3922 41.7524L36.8683 43.1919C36.8303 43.2966 36.8352 43.412 36.8823 43.5129C36.9294 43.6139 37.0146 43.6919 37.1192 43.7299L38.7363 44.3184C38.7827 44.3354 38.8314 44.344 38.88 44.344C38.9406 44.344 39.0015 44.3309 39.0577 44.3046C39.1586 44.2576 39.2364 44.1724 39.2745 44.0677L39.7983 42.6282C40.023 42.6554 40.2516 42.6695 40.4835 42.6695C40.7154 42.6695 40.944 42.6552 41.1686 42.6282L41.6926 44.0677C41.7305 44.1724 41.8087 44.2576 41.9094 44.3046C41.9654 44.3308 42.0261 44.344 42.0871 44.344C42.1355 44.344 42.1842 44.3356 42.2306 44.3184L43.848 43.7299C43.9524 43.6919 44.0377 43.6136 44.0847 43.5129C44.1317 43.412 44.1368 43.2966 44.0987 43.1919L43.5747 41.7526C43.9594 41.5021 44.3117 41.2056 44.6241 40.8715L45.951 41.6377C46.0154 41.6747 46.0878 41.6939 46.1609 41.6939C46.1972 41.6939 46.234 41.689 46.2696 41.6796C46.3771 41.6508 46.4688 41.5803 46.5244 41.484L47.385 39.9932C47.4405 39.8969 47.4557 39.7822 47.4269 39.6746C47.398 39.5674 47.3277 39.4755 47.2312 39.4198L45.9055 38.6548C46.0365 38.2241 46.1177 37.7719 46.1422 37.3046L47.6508 37.0386C47.7606 37.0193 47.858 36.9572 47.9217 36.8659C47.9879 36.7745 48.013 36.6618 47.9936 36.5521ZM40.4849 39.2458C39.2098 39.2458 38.1759 38.212 38.1759 36.9368C38.1759 35.6616 39.2099 34.6278 40.4849 34.6278C41.76 34.6278 42.7939 35.6616 42.7939 36.9368C42.7939 38.212 41.76 39.2458 40.4849 39.2458Z" fill="white"/>
<path d="M18.8254 25.0763C18.8254 24.5331 18.5071 24.0342 18.0143 23.8054L13.5045 21.7099L18.0145 19.6143C18.5071 19.3852 18.8254 18.8864 18.8254 18.3434V18.307C18.8254 17.8257 18.5832 17.384 18.1779 17.1257C17.9536 16.9825 17.6925 16.9067 17.4228 16.9067C17.2196 16.9067 17.0155 16.9514 16.833 17.0362L9.6229 20.3891C9.13036 20.6182 8.81226 21.117 8.81226 21.6599V21.7601C8.81226 22.3023 9.13025 22.8007 9.62302 23.0309L16.8338 26.3842C17.0202 26.4705 17.2188 26.5143 17.4238 26.5143C17.6911 26.5143 17.9515 26.4384 18.1779 26.2943C18.5835 26.0351 18.8256 25.5937 18.8256 25.113L18.8254 25.0763Z" fill="white"/>
<path d="M25.9394 13.4902C25.6764 13.1302 25.2534 12.9153 24.8077 12.9153H24.7718C24.1598 12.9153 23.6233 13.3068 23.4368 13.8887L18.6863 28.6079C18.5511 29.0329 18.6272 29.501 18.8899 29.8609C19.1529 30.2208 19.576 30.4358 20.0216 30.4358H20.0576C20.6694 30.4358 21.2056 30.0442 21.3918 29.4623L26.1417 14.7443C26.2782 14.3196 26.2025 13.8509 25.9394 13.4902Z" fill="white"/>
<path d="M35.206 20.3889L27.9958 17.036C27.8138 16.9514 27.6101 16.9067 27.4069 16.9067C27.1373 16.9067 26.876 16.9823 26.6519 17.1253C26.2459 17.384 26.0037 17.8256 26.0037 18.3069V18.3433C26.0037 18.8858 26.3218 19.3847 26.8149 19.6147L31.3247 21.7099L26.8148 23.8052C26.322 24.0341 26.0037 24.533 26.0037 25.0762V25.1129C26.0037 25.5935 26.2459 26.0349 26.6517 26.2943C26.8773 26.4381 27.1379 26.5141 27.4055 26.5141C27.6103 26.5141 27.8086 26.4704 27.9963 26.3837L35.2069 23.0305C35.6992 22.8008 36.0171 22.3023 36.0171 21.7601V21.6599C36.0167 21.1169 35.6986 20.6181 35.206 20.3889Z" fill="white"/>
</svg>
