<svg width="39" height="31" viewBox="0 0 39 31" fill="none" xmlns="http://www.w3.org/2000/svg">
<path fill-rule="evenodd" clip-rule="evenodd" d="M22.5529 18.5063C22.9067 18.4425 23.2655 18.4105 23.625 18.4106C24.381 18.4106 25.1044 18.5505 25.7708 18.8057L28.422 15.0356L28.5232 15.093C27.5404 13.9947 26.9979 12.572 27 11.0981C27 7.78446 29.6863 5.09814 33 5.09814C36.3137 5.09814 39 7.78446 39 11.0981C39 14.4118 36.3137 17.0981 33 17.0981C32.3115 17.0981 31.65 16.9821 31.0341 16.7687L28.3509 20.7133C29.1784 21.7679 29.6271 23.0702 29.625 24.4106C29.625 27.7243 26.9387 30.4106 23.625 30.4106C20.3113 30.4106 17.625 27.7243 17.625 24.4106C17.625 22.5793 18.4455 20.9396 19.7389 19.839L15.8456 12.099C15.444 12.1818 15.035 12.2234 14.625 12.2231C14.1087 12.2235 13.5944 12.1574 13.095 12.0263L10.3358 16.8881C11.4769 17.9803 12.1875 19.5188 12.1875 21.2231C12.1875 24.5368 9.50119 27.2231 6.1875 27.2231C2.87381 27.2231 0.1875 24.5368 0.1875 21.2231C0.1875 17.9095 2.87381 15.2231 6.1875 15.2231C6.68531 15.2231 7.16887 15.2837 7.63125 15.3979L10.4079 10.491C9.30713 9.40371 8.625 7.89321 8.625 6.22314C8.625 2.90946 11.3113 0.223145 14.625 0.223145C17.9387 0.223145 20.625 2.90946 20.625 6.22314C20.625 8.01621 19.8384 9.62552 18.5917 10.725L22.5529 18.5063ZM33 14.0981C34.6569 14.0981 36 12.7551 36 11.0981C36 9.44121 34.6569 8.09814 33 8.09814C31.3431 8.09814 30 9.44121 30 11.0981C30 12.7551 31.3431 14.0981 33 14.0981ZM6.1875 24.2231C7.84444 24.2231 9.1875 22.8801 9.1875 21.2231C9.1875 19.5662 7.84444 18.2231 6.1875 18.2231C4.53056 18.2231 3.1875 19.5662 3.1875 21.2231C3.1875 22.8801 4.53056 24.2231 6.1875 24.2231ZM14.625 9.22314C16.2819 9.22314 17.625 7.88008 17.625 6.22314C17.625 4.56621 16.2819 3.22314 14.625 3.22314C12.9681 3.22314 11.625 4.56621 11.625 6.22314C11.625 7.88008 12.9681 9.22314 14.625 9.22314ZM23.625 27.4106C25.2819 27.4106 26.625 26.0676 26.625 24.4106C26.625 22.7537 25.2819 21.4106 23.625 21.4106C21.9681 21.4106 20.625 22.7537 20.625 24.4106C20.625 26.0676 21.9681 27.4106 23.625 27.4106Z" fill="white"/>
</svg>
